:SAMPLES-PER-SECOND 24
:FULLY-SPECIFIED
:DEGREES
314
root  1.51559 40.6816 22.9101 18.926 -82.2551 -12.3713
RightUpLeg  -12.6929 5.24216 -9.73842
RightLeg  19.6903 -5.38739 -2.40577
RightFoot  0.576487 -1.10762 10.5705
RightToes  -2.08645e-008 3.77894e-005 6.81332e-007
Spine  2.85905 -3.20648 -11.2199
Spine1  5.07084 -7.68321 19.052
HEad  -26.2981 -6.1128 25.4951
LeftShoulder1  6.01688 -11.9881 -32.8393
LeftArm  16.8538 19.0215 -28.4707
LeftForeArm  164.89 -69.4707 -153.443
LeftHand  -0.190339 -3.43923 2.75162
RightShoulder  3.71984 6.47411 31.3884
RightArm  14.9741 -28.99 22.786
RightForeArm  138.898 76.0609 135.258
RightHand  -0.233131 6.45203 -2.6287
LeftUpLeg  -10.7864 -0.191236 13.2793
LeftLeg  14.9297 15.4866 5.63033
LeftFoot  4.70923 1.15414 -8.28695
LeftToes  1.24767e-006 1.47042e-008 1.32732e-009
315
root  1.62775 39.433 23.0868 14.645 -82.5963 -9.04852
RightUpLeg  -13.6499 7.49278 -10.3491
RightLeg  25.177 -7.74389 -4.17259
RightFoot  -8.04524 -0.348549 10.1824
RightToes  -2.08645e-008 3.77894e-005 6.81332e-007
Spine  5.36831 -3.03429 -13.1434
Spine1  4.29152 -7.82671 19.7731
HEad  -27.7847 -7.91681 25.4171
LeftShoulder1  5.87037 -11.8661 -32.1958
LeftArm  20.366 11.5255 -22.267
LeftForeArm  161.042 -70.6951 -151.164
LeftHand  -0.21769 -4.24612 2.903
RightShoulder  3.62628 6.37008 30.8277
RightArm  14.0265 -27.0606 23.8375
RightForeArm  135.569 76.7534 132.029
RightHand  -0.38861 6.7549 -4.0558
LeftUpLeg  -12.5032 -2.20814 14.3188
LeftLeg  21.0303 13.1624 5.845
LeftFoot  -1.00607 1.34795 -14.7726
LeftToes  1.24767e-006 1.47042e-008 1.32732e-009
316
root  1.77875 38.2875 23.5471 14.6514 -81.9201 -10.0896
RightUpLeg  -13.9753 7.94687 -10.9816
RightLeg  29.3142 -7.78047 -4.93213
RightFoot  -14.361 0.181818 10.5492
RightToes  -2.08645e-008 3.77894e-005 6.81332e-007
Spine  6.58169 -3.39898 -12.7204
Spine1  5.40364 -8.41965 19.1125
HEad  -30.2791 -8.6581 25.0906
LeftShoulder1  6.01572 -11.9642 -32.8923
LeftArm  19.6027 4.10037 -18.1096
LeftForeArm  160.697 -73.2301 -146.641
LeftHand  -0.241623 -4.633 3.09281
RightShoulder  3.64888 6.33738 31.1837
RightArm  11.6215 -22.8008 25.1955
RightForeArm  123.584 78.6895 119.245
RightHand  -0.646199 7.06253 -6.36854
LeftUpLeg  -14.7747 -1.66394 14.3025
LeftLeg  28.4809 10.7793 6.63636
LeftFoot  -9.11726 0.424469 -18.2219
LeftToes  1.24767e-006 1.47042e-008 1.32732e-009
317
root  1.7931 37.9809 24.2108 15.6968 -81.6735 -11.7953
RightUpLeg  -12.8734 8.23908 -11.638
RightLeg  29.1412 -8.15876 -5.12045
RightFoot  -15.2847 0.300279 11.6814
RightToes  -2.08645e-008 3.77894e-005 6.81332e-007
Spine  5.09099 -3.93682 -12.2506
Spine1  8.45367 -9.1831 18.0668
HEad  -32.2909 -8.36077 24.551
LeftShoulder1  6.49649 -12.3934 -34.843
LeftArm  14.7968 2.96351 -18.8394
LeftForeArm  162.352 -75.4339 -141.914
LeftHand  -0.299957 -4.50027 3.80352
RightShoulder  3.84036 6.49606 32.5167
RightArm  8.79893 -19.0747 26.3144
RightForeArm  110.201 79.9243 103.85
RightHand  -0.719798 6.9493 -7.10413
LeftUpLeg  -15.1349 -1.47339 13.1628
LeftLeg  31.0546 11.5957 7.78194
LeftFoot  -12.7159 -0.132546 -17.5767
LeftToes  1.24767e-006 1.47042e-008 1.32732e-009
318
root  1.63573 38.7273 25.0131 17.1321 -82.7614 -13.0648
RightUpLeg  -11.469 9.39958 -12.7585
RightLeg  25.1665 -8.82276 -4.70601
RightFoot  -10.0121 -0.228254 13.3932
RightToes  -2.08645e-008 3.77894e-005 6.81332e-007
Spine  2.0832 -4.06389 -11.8681
Spine1  10.4727 -9.15391 17.3393
HEad  -31.1156 -7.38509 23.5682
LeftShoulder1  7.14781 -12.9653 -37.3161
LeftArm  9.50068 9.93043 -23.9205
LeftForeArm  165.297 -74.7056 -144.237
LeftHand  -0.38713 -4.13844 4.99136
RightShoulder  3.99728 6.63135 33.5543
RightArm  7.82585 -19.854 27.8078
RightForeArm  112.913 79.8167 106.305
RightHand  -0.680781 7.02663 -6.70095
LeftUpLeg  -12.8374 -1.01474 11.5523
LeftLeg  27.0677 12.9223 7.38513
LeftFoot  -9.27824 0.333107 -15.6142
LeftToes  1.24767e-006 1.47042e-008 1.32732e-009
